P3
12 12
255
143 143 205	
140 195 233	
111 250 197	
240 179 172	
246 157 166	
196 135 246	
209 197 194	
124 122 248	
157 155 110	
130 247 170	
248 240 132	
223 202 165
103 121 137	
21 74 44	
219 168 230	
253 143 114	
166 215 140	
170 140 135	
226 152 171	
208 122 165	
117 250 132	
102 231 125	
194 106 166	
197 161 239
181 141 223	
122 189 157	
36 63 52	
175 191 116	
168 160 184	
122 124 215	
73 13 28	
131 218 201	
120 204 230	
190 100 147	
179 164 222	
225 191 231
200 194 158	
243 133 184	
201 143 186	
46 66 17	
255 172 178	
80 98 20	
239 210 187	
122 133 241	
214 174 127	
183 209 170	
190 182 216	
140 194 207
147 165 123	
233 165 184	
169 184 165	
207 110 207	
38 74 79	
232 233 235	
6 86 80	
219 198 178	
147 102 135	
142 186 135	
180 219 176	
157 230 101
165 129 207	
218 223 151	
202 192 243	
36 65 42	
129 142 211	
92 75 92	
142 127 118	
187 187 162	
239 157 130	
46 50 36	
242 146 214	
231 108 182
213 213 161	
126 210 118	
66 38 6	
195 162 137	
151 143 137	
220 185 164	
84 55 30 	
146 101 152	
93 4 70	
109 187 192	
224 162 200	
150 189 155
127 205 145	
169 203 188	
165 143 250	
203 194 138
240 159 223
149 142 241	
145 188 242	
72 63 13	
244 119 118	
180 243 181	
125 138 114	
181 208 217
160 144 151	
114 117 104	
108 220 199	
146 205 102	
114 254 144	
100 144 232	
64 89 11	
174 230 105	
59 13 24	
118 181 131	
132 106 239	
250 120 101
226 223 216	
255 129 221	
198 176 171	
200 191 170	
245 191 214	
43 81 87	
207 252 176	
23 19 23	
205 208 157	
49 67 7	
221 235 184	
222 234 213
192 158 142	
188 177 134	
104 121 225	
174 110 161	
133 232 239	
234 184 236	
154 141 170	
130 247 123	
187 229 108	
251 194 244	
94 46 32	
137 249 144
153 125 245	
172 253 165	
141 172 176	
202 205 153	
186 184 237	
167 238 123	
237 113 115	
104 201 244	
113 196 182	
101 120 244	
224 158 237	
112 230 235
